<svg xmlns="http://www.w3.org/2000/svg" width="24" height="24" viewBox="0 0 24 24" fill="white" stroke-width="2"><path d="M10.48 3.25L10.48 4.07L10.58 5.08L10.53 6L10.12 6.88L9.61 7.66L9.2 8.3L8.69 8.99L7.91 10L7.4 10.6L6.81 11.2L6.26 11.98L5.89 12.76L5.57 13.49L5.34 14.6L5.06 15.33L4.92 16.48L5.15 17.54L5.57 18.5L5.93 19.19L6.49 19.88L7.04 20.48L7.68 21.03L8.37 21.54L9.33 22.04L10.3 22.13L11.17 22.04L12.05 21.81L13.1 21.54L13.93 21.35L14.8 21.03L15.68 20.57L16.27 20.11L17.24 19.42L17.84 18.64L18.07 17.86L18.34 17.03L18.62 16.07L18.85 15.01L18.99 14.18L19.08 13.03L18.94 12.11L18.76 11.33L18.48 10.55L18.25 9.63L17.93 8.85L17.47 8.07L16.92 7.52L17.06 8.39L16.92 9.27L16.64 10.09L16.27 10.78L15.63 11.33L14.8 11.75L14.11 11.29L13.75 10.55L13.56 9.68L13.52 8.9L13.61 8.12L13.65 7.34L13.65 6.55L13.47 5.77L13.29 4.99L13.06 4.26L12.69 3.48L12.23 2.79L11.59 2.33L10.85 2.14L10.12 1.96L9.33 1.87L9.93 2.33L10.3 3.02L10.48 3.75" id="kPKuTZT0p"></path></svg>